<svg xmlns="http://www.w3.org/2000/svg" viewBox="0 0 131.54 45.67"><path d="M1.25,45.67,0,44.38,14.07,3.69l1.39-.58,15.9,7.82L35.25,0l1.88,0L53.84,42.73,52.54,44,32,36ZM8.41,26.21,2.55,43.15l26.53-8.32Zm24,7.82,18.74,7.3L36.24,3.24l-3.07,8.59,2.06,1-.06,1.83-3.54,1.47L27.87,26.69,26,26.83,22.39,20,10.55,24.92ZM24.26,19.21l2.48,4.66,2.38-6.68Zm-9-12.69L9.45,23.21l12-5Zm2.15-.23,5.94,11.14L30,14.63l.64-1.79Z" style="fill:#5de1b1"/><path d="M66.57,14.47A2.64,2.64,0,0,1,68.12,17c0,1.88-1.34,3.37-4,3.37H60.68V8.75h3.6c2.36,0,3.55,1.32,3.55,3A2.39,2.39,0,0,1,66.57,14ZM66.05,12c0-1-.53-1.58-2-1.58H62.42v3.14h1.65c1.45,0,2-.58,2-1.56m.29,5c0-1.14-.61-1.81-2.27-1.81H62.42v3.6h1.65c1.66,0,2.27-.67,2.27-1.79"/><polygon points="76.87 18.75 76.87 20.38 70.35 20.38 70.35 8.75 76.87 8.75 76.87 10.38 72.09 10.38 72.09 13.54 75.6 13.54 75.6 15.17 72.09 15.17 72.09 18.75 76.87 18.75"/><path d="M80.84,15.43v4.95H79.1V8.75h3.6c2.39,0,3.71,1.27,3.71,3.34A3.13,3.13,0,0,1,85,14.89l1.62,5.49H84.76l-1.45-5a4,4,0,0,1-.61,0Zm3.81-3.34c0-1.07-.57-1.71-2.16-1.71H80.84V13.8h1.65c1.59,0,2.16-.63,2.16-1.71"/><polygon points="95.73 18.75 95.73 20.38 88.91 20.38 88.91 8.75 90.65 8.75 90.65 18.75 95.73 18.75"/><rect x="97.47" y="8.75" width="1.74" height="11.62"/><polygon points="109.72 8.75 109.72 20.38 106.31 20.38 104.17 10.54 103.72 10.54 103.72 20.38 102.04 20.38 102.04 8.75 105.46 8.75 107.59 18.59 108.05 18.59 108.05 8.75 109.72 8.75"/><polygon points="69.7 24.41 69.7 36.03 68.02 36.03 68.02 26.2 67.57 26.2 66.51 31.63 63.87 31.63 62.81 26.2 62.36 26.2 62.36 36.03 60.68 36.03 60.68 24.41 63.97 24.41 64.99 29.8 65.45 29.8 66.47 24.41 69.7 24.41"/><path d="M80.21,30.22c0,3.5-1.12,6-4.1,6s-4.1-2.52-4.1-6,1.12-6,4.1-6,4.1,2.5,4.1,6m-1.78,0c0-2.66-.5-4.35-2.32-4.35s-2.33,1.69-2.33,4.35.5,4.34,2.33,4.34,2.32-1.69,2.32-4.34"/><polygon points="90.2 24.41 90.2 36.03 86.78 36.03 84.65 26.2 84.19 26.2 84.19 36.03 82.52 36.03 82.52 24.41 85.93 24.41 88.07 34.24 88.52 34.24 88.52 24.41 90.2 24.41"/><path d="M96,24.41c3.4,0,4.54,2.32,4.54,5.81S99.44,36,96,36H93V24.41Zm-1.27,10h1.07c2.56,0,3-1.84,3-4.18S98.4,26,95.84,26H94.77Z"/><rect x="102.89" y="24.41" width="1.74" height="11.62"/><path d="M112.16,32.58h-3.28L108.24,36h-1.71l2.31-11.62h3.39L114.56,36h-1.75Zm-3-1.63h2.67L111,26.2h-.9Z"/><polygon points="123.28 34.4 123.28 36.03 116.46 36.03 116.46 24.41 118.2 24.41 118.2 34.4 123.28 34.4"/><polygon points="131.54 34.4 131.54 36.03 125.02 36.03 125.02 24.41 131.54 24.41 131.54 26.03 126.76 26.03 126.76 29.19 130.27 29.19 130.27 30.82 126.76 30.82 126.76 34.4 131.54 34.4"/></svg>